<?xml version="1.0" standalone="no"?>
<!DOCTYPE svg PUBLIC "-//W3C//DTD SVG 20010904//EN"
 "http://www.w3.org/TR/2001/REC-SVG-20010904/DTD/svg10.dtd">
<svg version="1.0" xmlns="http://www.w3.org/2000/svg"
 width="700.000000pt" height="700.000000pt" viewBox="0 0 700.000000 700.000000"
 preserveAspectRatio="xMidYMid meet">
<metadata>
Created by potrace 1.11, written by Peter Selinger 2001-2013
</metadata>
<g transform="translate(0.000000,700.000000) scale(0.100000,-0.100000)"
fill="#000000" stroke="none">
<path d="M1270 6910 c-130 -23 -223 -136 -223 -270 -1 -84 24 -139 98 -219 93
-102 178 -254 199 -356 6 -29 4 -31 -50 -48 -244 -77 -499 -298 -618 -537 -99
-197 -124 -323 -125 -620 l-1 -156 -62 -31 c-92 -45 -182 -115 -201 -156 -22
-46 -21 -97 3 -180 37 -131 113 -259 204 -346 l56 -52 0 -398 0 -398 -56 -38
c-77 -53 -164 -142 -213 -217 -70 -107 -58 -177 53 -311 58 -68 153 -151 194
-167 l22 -10 0 -402 0 -402 -44 -40 c-98 -91 -186 -239 -221 -371 -32 -124
-13 -182 83 -252 50 -36 153 -90 203 -106 10 -3 26 -34 39 -74 106 -321 358
-574 691 -691 84 -30 106 -35 219 -52 74 -11 4080 -10 4150 1 126 20 180 34
297 83 276 114 518 380 609 670 10 31 23 56 30 56 23 0 174 81 223 121 80 63
98 112 74 213 -31 136 -115 284 -218 386 l-55 54 0 397 0 397 63 45 c75 55
137 115 188 182 78 105 84 169 24 263 -43 66 -173 195 -233 232 l-41 25 -1
400 0 400 46 44 c170 162 279 435 218 541 -24 41 -118 111 -200 150 l-64 31 0
177 c-1 192 -3 220 -26 332 -77 365 -363 689 -714 806 -30 10 -56 19 -57 20
-14 5 80 236 98 242 5 2 9 8 9 14 0 12 45 70 116 150 60 67 83 129 79 209 -10
203 -216 320 -401 228 -71 -36 -212 -197 -284 -324 -67 -118 -137 -287 -153
-371 -3 -10 -8 -38 -12 -62 l-8 -42 -1684 2 -1685 3 -23 90 c-55 213 -118 347
-246 515 -134 178 -243 243 -369 220z"/>
</g>
</svg>
