<svg version="1.0" xmlns="http://www.w3.org/2000/svg" width="933.333" height="933.333" viewBox="0 0 700 700"><path d="M127 9c-13 2.3-22.3 13.6-22.3 27-.1 8.4 2.4 13.9 9.8 21.9 9.3 10.2 17.8 25.4 19.9 35.6.6 2.9.4 3.1-5 4.8C105 106 79.5 128.1 67.6 152c-9.9 19.7-12.4 32.3-12.5 62l-.1 15.6-6.2 3.1c-9.2 4.5-18.2 11.5-20.1 15.6-2.2 4.6-2.1 9.7.3 18 3.7 13.1 11.3 25.9 20.4 34.6l5.6 5.2v79.6l-5.6 3.8c-7.7 5.3-16.4 14.2-21.3 21.7-7 10.7-5.8 17.7 5.3 31.1 5.8 6.8 15.3 15.1 19.4 16.7l2.2 1v80.4l-4.4 4c-9.8 9.1-18.6 23.9-22.1 37.1-3.2 12.4-1.3 18.2 8.3 25.2 5 3.6 15.3 9 20.3 10.6 1 .3 2.6 3.4 3.9 7.4 10.6 32.1 35.8 57.4 69.1 69.1 8.4 3 10.6 3.5 21.9 5.2 7.4 1.1 408 1 415-.1 12.6-2 18-3.4 29.7-8.3 27.6-11.4 51.8-38 60.9-67 1-3.1 2.3-5.6 3-5.6 2.3 0 17.4-8.1 22.3-12.1 8-6.3 9.8-11.2 7.4-21.3-3.1-13.6-11.5-28.4-21.8-38.6l-5.5-5.4v-79.4l6.3-4.5c7.5-5.5 13.7-11.5 18.8-18.2 7.8-10.5 8.4-16.9 2.4-26.3-4.3-6.6-17.3-19.5-23.3-23.2l-4.1-2.5-.1-40v-40l4.6-4.4c17-16.2 27.9-43.5 21.8-54.1-2.4-4.1-11.8-11.1-20-15l-6.4-3.1v-17.7c-.1-19.2-.3-22-2.6-33.2-7.7-36.5-36.3-68.9-71.4-80.6-3-1-5.6-1.9-5.7-2-1.4-.5 8-23.6 9.8-24.2.5-.2.9-.8.9-1.4 0-1.2 4.5-7 11.6-15 6-6.7 8.3-12.9 7.9-20.9-1-20.3-21.6-32-40.1-22.8-7.1 3.6-21.2 19.7-28.4 32.4-6.7 11.8-13.7 28.7-15.3 37.1-.3 1-.8 3.8-1.2 6.2l-.8 4.2-168.4-.2-168.5-.3-2.3-9C183 61.2 176.7 47.8 163.9 31 150.5 13.2 139.6 6.7 127 9z"/></svg>